<?xml version="1.0" encoding="UTF-8" standalone="no"?>
<svg
   version="1.1"
   width="16"
   height="16"
   shape-rendering="crispEdges"
   id="svg22"
   sodipodi:docname="greater.svg"
   xmlns:inkscape="http://www.inkscape.org/namespaces/inkscape"
   xmlns:sodipodi="http://sodipodi.sourceforge.net/DTD/sodipodi-0.dtd"
   xmlns="http://www.w3.org/2000/svg"
   xmlns:svg="http://www.w3.org/2000/svg">
  <defs
     id="defs26" />
  <sodipodi:namedview
     id="namedview24"
     pagecolor="#ffffff"
     bordercolor="#000000"
     borderopacity="0.25"
     inkscape:showpageshadow="2"
     inkscape:pageopacity="0.0"
     inkscape:pagecheckerboard="0"
     inkscape:deskcolor="#d1d1d1" />
  <path
     id="rect2"
     d="M 0 6 L 0 7 L 1 7 L 1 6 L 0 6 z M 1 7 L 1 8 L 2 8 L 3 8 L 3 7 L 2 7 L 1 7 z M 3 8 L 3 9 L 3 10 L 4 10 L 5 10 L 5 9 L 5 8 L 4 8 L 3 8 z M 3 10 L 2 10 L 1 10 L 1 11 L 2 11 L 3 11 L 3 10 z M 1 11 L 0 11 L 0 12 L 1 12 L 1 11 z " />
</svg>
