<?xml version="1.0" encoding="UTF-8" standalone="no"?>
<svg
   version="1.1"
   width="16"
   height="16"
   shape-rendering="crispEdges"
   id="svg72"
   sodipodi:docname="n.svg"
   xmlns:inkscape="http://www.inkscape.org/namespaces/inkscape"
   xmlns:sodipodi="http://sodipodi.sourceforge.net/DTD/sodipodi-0.dtd"
   xmlns="http://www.w3.org/2000/svg"
   xmlns:svg="http://www.w3.org/2000/svg">
  <defs
     id="defs76" />
  <sodipodi:namedview
     id="namedview74"
     pagecolor="#ffffff"
     bordercolor="#000000"
     borderopacity="0.25"
     inkscape:showpageshadow="2"
     inkscape:pageopacity="0.0"
     inkscape:pagecheckerboard="0"
     inkscape:deskcolor="#d1d1d1" />
  <path
     id="rect2"
     d="M 0 5 L 0 6 L 0 7 L 0 8 L 0 9 L 0 10 L 0 11 L 0 12 L 0 13 L 1 13 L 2 13 L 2 12 L 2 11 L 2 10 L 2 9 L 3 9 L 3 8 L 3 7 L 2 7 L 2 6 L 2 5 L 1 5 L 0 5 z M 3 7 L 4 7 L 4 8 L 4 9 L 4 10 L 3 10 L 3 11 L 3 12 L 3 13 L 4 13 L 5 13 L 5 12 L 5 11 L 5 10 L 6 10 L 6 9 L 6 8 L 6 7 L 6 6 L 5 6 L 5 5 L 4 5 L 3 5 L 3 6 L 3 7 z " />
</svg>
