<?xml version="1.0" encoding="UTF-8" standalone="no"?>
<svg
   version="1.1"
   width="16"
   height="16"
   shape-rendering="crispEdges"
   id="svg38"
   sodipodi:docname="ordmasculine.svg"
   xmlns:inkscape="http://www.inkscape.org/namespaces/inkscape"
   xmlns:sodipodi="http://sodipodi.sourceforge.net/DTD/sodipodi-0.dtd"
   xmlns="http://www.w3.org/2000/svg"
   xmlns:svg="http://www.w3.org/2000/svg">
  <defs
     id="defs42" />
  <sodipodi:namedview
     id="namedview40"
     pagecolor="#ffffff"
     bordercolor="#000000"
     borderopacity="0.25"
     inkscape:showpageshadow="2"
     inkscape:pageopacity="0.0"
     inkscape:pagecheckerboard="0"
     inkscape:deskcolor="#d1d1d1" />
  <path
     id="rect2"
     d="M 2 1 L 2 2 L 3 2 L 3 3 L 4 3 L 4 2 L 4 1 L 3 1 L 2 1 z M 4 3 L 4 4 L 4 5 L 3 5 L 2 5 L 2 4 L 2 3 L 2 2 L 1 2 L 1 3 L 0 3 L 0 4 L 0 5 L 0 6 L 1 6 L 1 7 L 2 7 L 3 7 L 4 7 L 4 6 L 5 6 L 5 5 L 5 4 L 5 3 L 4 3 z " />
</svg>
