<?xml version="1.0" encoding="UTF-8" standalone="no"?>
<svg
   version="1.1"
   width="16"
   height="16"
   shape-rendering="crispEdges"
   id="svg64"
   sodipodi:docname="questiondown.svg"
   xmlns:inkscape="http://www.inkscape.org/namespaces/inkscape"
   xmlns:sodipodi="http://sodipodi.sourceforge.net/DTD/sodipodi-0.dtd"
   xmlns="http://www.w3.org/2000/svg"
   xmlns:svg="http://www.w3.org/2000/svg">
  <defs
     id="defs68" />
  <sodipodi:namedview
     id="namedview66"
     pagecolor="#ffffff"
     bordercolor="#000000"
     borderopacity="0.25"
     inkscape:showpageshadow="2"
     inkscape:pageopacity="0.0"
     inkscape:pagecheckerboard="0"
     inkscape:deskcolor="#d1d1d1" />
  <path
     id="rect2"
     d="M 3 5 L 3 6 L 3 7 L 4 7 L 5 7 L 5 6 L 5 5 L 4 5 L 3 5 z M 3 8 L 3 9 L 3 10 L 2 10 L 2 11 L 1 11 L 1 12 L 0 12 L 0 13 L 0 14 L 0 15 L 1 15 L 1 16 L 2 16 L 3 16 L 4 16 L 5 16 L 6 16 L 7 16 L 7 15 L 7 14 L 6 14 L 6 15 L 5 15 L 4 15 L 3 15 L 3 14 L 2 14 L 2 13 L 3 13 L 3 12 L 4 12 L 4 11 L 4 10 L 5 10 L 5 9 L 5 8 L 4 8 L 3 8 z M 6 14 L 6 13 L 7 13 L 7 12 L 6 12 L 5 12 L 5 13 L 5 14 L 6 14 z " />
</svg>
