<?xml version="1.0" encoding="UTF-8" standalone="no"?>
<svg
   version="1.1"
   width="16"
   height="16"
   shape-rendering="crispEdges"
   id="svg88"
   sodipodi:docname="section.svg"
   xmlns:inkscape="http://www.inkscape.org/namespaces/inkscape"
   xmlns:sodipodi="http://sodipodi.sourceforge.net/DTD/sodipodi-0.dtd"
   xmlns="http://www.w3.org/2000/svg"
   xmlns:svg="http://www.w3.org/2000/svg">
  <defs
     id="defs92" />
  <sodipodi:namedview
     id="namedview90"
     pagecolor="#ffffff"
     bordercolor="#000000"
     borderopacity="0.25"
     inkscape:showpageshadow="2"
     inkscape:pageopacity="0.0"
     inkscape:pagecheckerboard="0"
     inkscape:deskcolor="#d1d1d1" />
  <path
     id="rect2"
     d="M 2 2 L 2 3 L 1 3 L 1 4 L 1 5 L 2 5 L 2 6 L 1 6 L 1 7 L 0 7 L 0 8 L 0 9 L 1 9 L 1 10 L 1 11 L 2 11 L 2 12 L 3 12 L 3 13 L 2 13 L 2 12 L 1 12 L 0 12 L 0 13 L 0 14 L 1 14 L 2 14 L 3 14 L 4 14 L 4 13 L 5 13 L 5 12 L 5 11 L 4 11 L 4 10 L 3 10 L 3 9 L 2 9 L 2 8 L 2 7 L 3 7 L 3 8 L 4 8 L 4 9 L 4 10 L 5 10 L 5 9 L 6 9 L 6 8 L 6 7 L 5 7 L 5 6 L 4 6 L 4 5 L 3 5 L 3 4 L 3 3 L 4 3 L 5 3 L 5 4 L 4 4 L 4 5 L 5 5 L 6 5 L 6 4 L 6 3 L 6 2 L 5 2 L 4 2 L 3 2 L 2 2 z " />
</svg>
