<?xml version="1.0" encoding="UTF-8" standalone="no"?>
<svg
   version="1.1"
   width="16"
   height="16"
   shape-rendering="crispEdges"
   id="svg152"
   sodipodi:docname="at.svg"
   xmlns:inkscape="http://www.inkscape.org/namespaces/inkscape"
   xmlns:sodipodi="http://sodipodi.sourceforge.net/DTD/sodipodi-0.dtd"
   xmlns="http://www.w3.org/2000/svg"
   xmlns:svg="http://www.w3.org/2000/svg">
  <defs
     id="defs156" />
  <sodipodi:namedview
     id="namedview154"
     pagecolor="#ffffff"
     bordercolor="#000000"
     borderopacity="0.25"
     inkscape:showpageshadow="2"
     inkscape:pageopacity="0.0"
     inkscape:pagecheckerboard="0"
     inkscape:deskcolor="#d1d1d1" />
  <path
     id="rect2"
     d="M 4 3 L 4 4 L 5 4 L 6 4 L 7 4 L 8 4 L 8 3 L 7 3 L 6 3 L 5 3 L 4 3 z M 8 4 L 8 5 L 9 5 L 10 5 L 10 4 L 9 4 L 8 4 z M 10 5 L 10 6 L 10 7 L 11 7 L 11 6 L 11 5 L 10 5 z M 11 7 L 11 8 L 11 9 L 11 10 L 11 11 L 12 11 L 12 10 L 12 9 L 12 8 L 12 7 L 11 7 z M 11 11 L 10 11 L 10 12 L 9 12 L 9 11 L 9 10 L 9 9 L 9 8 L 9 7 L 9 6 L 8 6 L 8 5 L 7 5 L 6 5 L 5 5 L 4 5 L 4 6 L 5 6 L 5 7 L 6 7 L 6 6 L 7 6 L 7 7 L 6 7 L 6 8 L 7 8 L 7 9 L 7 10 L 6 10 L 6 11 L 5 11 L 5 10 L 5 9 L 4 9 L 4 10 L 4 11 L 4 12 L 4 13 L 5 13 L 6 13 L 6 12 L 7 12 L 7 13 L 8 13 L 8 14 L 9 14 L 10 14 L 10 13 L 11 13 L 11 12 L 11 11 z M 4 13 L 3 13 L 3 12 L 3 11 L 2 11 L 2 10 L 2 9 L 2 8 L 2 7 L 3 7 L 3 6 L 3 5 L 4 5 L 4 4 L 3 4 L 2 4 L 2 5 L 1 5 L 1 6 L 1 7 L 0 7 L 0 8 L 0 9 L 0 10 L 0 11 L 0 12 L 1 12 L 1 13 L 1 14 L 2 14 L 2 15 L 3 15 L 4 15 L 4 16 L 5 16 L 6 16 L 6 15 L 7 15 L 7 14 L 6 14 L 5 14 L 4 14 L 4 13 z M 5 9 L 6 9 L 6 8 L 5 8 L 5 9 z " />
</svg>
