<?xml version="1.0" encoding="UTF-8" standalone="no"?>
<svg
   version="1.1"
   width="16"
   height="16"
   shape-rendering="crispEdges"
   id="svg80"
   sodipodi:docname="euro.svg"
   xmlns:inkscape="http://www.inkscape.org/namespaces/inkscape"
   xmlns:sodipodi="http://sodipodi.sourceforge.net/DTD/sodipodi-0.dtd"
   xmlns="http://www.w3.org/2000/svg"
   xmlns:svg="http://www.w3.org/2000/svg">
  <defs
     id="defs84" />
  <sodipodi:namedview
     id="namedview82"
     pagecolor="#ffffff"
     bordercolor="#000000"
     borderopacity="0.25"
     inkscape:showpageshadow="2"
     inkscape:pageopacity="0.0"
     inkscape:pagecheckerboard="0"
     inkscape:deskcolor="#d1d1d1" />
  <path
     id="rect2"
     d="M 3 2 L 3 3 L 2 3 L 2 4 L 2 5 L 1 5 L 1 6 L 0 6 L 0 7 L 1 7 L 1 8 L 0 8 L 0 9 L 1 9 L 1 10 L 2 10 L 2 11 L 2 12 L 3 12 L 3 13 L 4 13 L 5 13 L 6 13 L 6 12 L 7 12 L 7 11 L 7 10 L 6 10 L 6 11 L 5 11 L 4 11 L 4 10 L 3 10 L 3 9 L 4 9 L 4 8 L 3 8 L 3 7 L 4 7 L 4 6 L 3 6 L 3 5 L 4 5 L 4 4 L 5 4 L 6 4 L 6 5 L 7 5 L 7 4 L 7 3 L 6 3 L 6 2 L 5 2 L 4 2 L 3 2 z M 6 5 L 5 5 L 5 6 L 5 7 L 6 7 L 7 7 L 7 6 L 6 6 L 6 5 z " />
</svg>
