<?xml version="1.0" encoding="UTF-8" standalone="no"?>
<svg
   version="1.1"
   width="16"
   height="16"
   shape-rendering="crispEdges"
   id="svg48"
   sodipodi:docname="iacute.svg"
   xmlns:inkscape="http://www.inkscape.org/namespaces/inkscape"
   xmlns:sodipodi="http://sodipodi.sourceforge.net/DTD/sodipodi-0.dtd"
   xmlns="http://www.w3.org/2000/svg"
   xmlns:svg="http://www.w3.org/2000/svg">
  <defs
     id="defs52" />
  <sodipodi:namedview
     id="namedview50"
     pagecolor="#ffffff"
     bordercolor="#000000"
     borderopacity="0.25"
     inkscape:showpageshadow="2"
     inkscape:pageopacity="0.0"
     inkscape:pagecheckerboard="0"
     inkscape:deskcolor="#d1d1d1" />
  <path
     id="rect2"
     d="M 1 2 L 1 3 L 0 3 L 0 4 L 1 4 L 2 4 L 2 3 L 3 3 L 3 2 L 2 2 L 1 2 z M 0 5 L 0 6 L 0 7 L 0 8 L 0 9 L 0 10 L 0 11 L 0 12 L 1 12 L 1 13 L 2 13 L 3 13 L 4 13 L 4 12 L 4 11 L 3 11 L 3 12 L 2 12 L 2 11 L 3 11 L 3 10 L 2 10 L 2 9 L 2 8 L 2 7 L 2 6 L 2 5 L 1 5 L 0 5 z " />
</svg>
