<?xml version="1.0" encoding="UTF-8" standalone="no"?>
<svg
   version="1.1"
   width="16"
   height="16"
   shape-rendering="crispEdges"
   id="svg64"
   sodipodi:docname="IIgrave.svg"
   xmlns:inkscape="http://www.inkscape.org/namespaces/inkscape"
   xmlns:sodipodi="http://sodipodi.sourceforge.net/DTD/sodipodi-0.dtd"
   xmlns="http://www.w3.org/2000/svg"
   xmlns:svg="http://www.w3.org/2000/svg">
  <defs
     id="defs68" />
  <sodipodi:namedview
     id="namedview66"
     pagecolor="#ffffff"
     bordercolor="#000000"
     borderopacity="0.25"
     inkscape:showpageshadow="2"
     inkscape:pageopacity="0.0"
     inkscape:pagecheckerboard="0"
     inkscape:deskcolor="#d1d1d1" />
  <path
     id="rect2"
     d="M 1 0 L 1 1 L 2 1 L 2 2 L 3 2 L 4 2 L 4 1 L 3 1 L 3 0 L 2 0 L 1 0 z M 1 3 L 1 4 L 2 4 L 2 5 L 2 6 L 1 6 L 1 7 L 2 7 L 2 8 L 2 9 L 2 10 L 2 11 L 2 12 L 1 12 L 1 13 L 2 13 L 3 13 L 4 13 L 5 13 L 5 12 L 4 12 L 4 11 L 4 10 L 4 9 L 4 8 L 5 8 L 5 7 L 4 7 L 4 6 L 4 5 L 4 4 L 4 3 L 3 3 L 2 3 L 1 3 z M 1 6 L 1 5 L 1 4 L 0 4 L 0 5 L 0 6 L 1 6 z " />
</svg>
