<?xml version="1.0" encoding="UTF-8" standalone="no"?>
<svg
   version="1.1"
   width="16"
   height="16"
   shape-rendering="crispEdges"
   id="svg60"
   sodipodi:docname="j.svg"
   xmlns:inkscape="http://www.inkscape.org/namespaces/inkscape"
   xmlns:sodipodi="http://sodipodi.sourceforge.net/DTD/sodipodi-0.dtd"
   xmlns="http://www.w3.org/2000/svg"
   xmlns:svg="http://www.w3.org/2000/svg">
  <defs
     id="defs64" />
  <sodipodi:namedview
     id="namedview62"
     pagecolor="#ffffff"
     bordercolor="#000000"
     borderopacity="0.25"
     inkscape:showpageshadow="2"
     inkscape:pageopacity="0.0"
     inkscape:pagecheckerboard="0"
     inkscape:deskcolor="#d1d1d1" />
  <path
     id="rect2"
     d="M 2 2 L 2 3 L 2 4 L 3 4 L 4 4 L 4 3 L 4 2 L 3 2 L 2 2 z M 2 5 L 2 6 L 2 7 L 2 8 L 2 9 L 2 10 L 2 11 L 2 12 L 2 13 L 1 13 L 1 14 L 2 14 L 2 15 L 1 15 L 1 14 L 0 14 L 0 15 L 0 16 L 1 16 L 2 16 L 3 16 L 3 15 L 4 15 L 4 14 L 4 13 L 4 12 L 4 11 L 4 10 L 4 9 L 4 8 L 4 7 L 4 6 L 4 5 L 3 5 L 2 5 z " />
</svg>
