<?xml version="1.0" encoding="UTF-8" standalone="no"?>
<svg
   version="1.1"
   width="16"
   height="16"
   shape-rendering="crispEdges"
   id="svg76"
   sodipodi:docname="k.svg"
   xmlns:inkscape="http://www.inkscape.org/namespaces/inkscape"
   xmlns:sodipodi="http://sodipodi.sourceforge.net/DTD/sodipodi-0.dtd"
   xmlns="http://www.w3.org/2000/svg"
   xmlns:svg="http://www.w3.org/2000/svg">
  <defs
     id="defs80" />
  <sodipodi:namedview
     id="namedview78"
     pagecolor="#ffffff"
     bordercolor="#000000"
     borderopacity="0.25"
     inkscape:showpageshadow="2"
     inkscape:pageopacity="0.0"
     inkscape:pagecheckerboard="0"
     inkscape:deskcolor="#d1d1d1" />
  <path
     id="rect2"
     d="M 0 2 L 0 3 L 0 4 L 0 5 L 0 6 L 0 7 L 0 8 L 0 9 L 0 10 L 0 11 L 0 12 L 0 13 L 1 13 L 2 13 L 2 12 L 2 11 L 2 10 L 2 9 L 2 8 L 3 8 L 3 7 L 2 7 L 2 6 L 2 5 L 2 4 L 2 3 L 2 2 L 1 2 L 0 2 z M 3 7 L 4 7 L 4 6 L 5 6 L 5 5 L 5 4 L 4 4 L 3 4 L 3 5 L 3 6 L 3 7 z M 3 8 L 3 9 L 3 10 L 3 11 L 4 11 L 4 12 L 4 13 L 5 13 L 6 13 L 6 12 L 6 11 L 5 11 L 5 10 L 5 9 L 4 9 L 4 8 L 3 8 z " />
</svg>
