<?xml version="1.0" encoding="UTF-8" standalone="no"?>
<svg
   version="1.1"
   width="16"
   height="16"
   shape-rendering="crispEdges"
   id="svg22"
   sodipodi:docname="less.svg"
   xmlns:inkscape="http://www.inkscape.org/namespaces/inkscape"
   xmlns:sodipodi="http://sodipodi.sourceforge.net/DTD/sodipodi-0.dtd"
   xmlns="http://www.w3.org/2000/svg"
   xmlns:svg="http://www.w3.org/2000/svg">
  <defs
     id="defs26" />
  <sodipodi:namedview
     id="namedview24"
     pagecolor="#ffffff"
     bordercolor="#000000"
     borderopacity="0.25"
     inkscape:showpageshadow="2"
     inkscape:pageopacity="0.0"
     inkscape:pagecheckerboard="0"
     inkscape:deskcolor="#d1d1d1" />
  <path
     id="rect2"
     d="M 4 6 L 4 7 L 5 7 L 5 6 L 4 6 z M 4 7 L 3 7 L 2 7 L 2 8 L 3 8 L 4 8 L 4 7 z M 2 8 L 1 8 L 0 8 L 0 9 L 0 10 L 1 10 L 2 10 L 2 9 L 2 8 z M 2 10 L 2 11 L 3 11 L 4 11 L 4 10 L 3 10 L 2 10 z M 4 11 L 4 12 L 5 12 L 5 11 L 4 11 z " />
</svg>
