<?xml version="1.0" encoding="UTF-8" standalone="no"?>
<svg
   version="1.1"
   width="16"
   height="16"
   shape-rendering="crispEdges"
   id="svg142"
   sodipodi:docname="MM.svg"
   xmlns:inkscape="http://www.inkscape.org/namespaces/inkscape"
   xmlns:sodipodi="http://sodipodi.sourceforge.net/DTD/sodipodi-0.dtd"
   xmlns="http://www.w3.org/2000/svg"
   xmlns:svg="http://www.w3.org/2000/svg">
  <defs
     id="defs146" />
  <sodipodi:namedview
     id="namedview144"
     pagecolor="#ffffff"
     bordercolor="#000000"
     borderopacity="0.25"
     inkscape:showpageshadow="2"
     inkscape:pageopacity="0.0"
     inkscape:pagecheckerboard="0"
     inkscape:deskcolor="#d1d1d1" />
  <path
     id="rect2"
     d="M 1 3 L 1 4 L 2 4 L 2 5 L 2 6 L 1 6 L 1 7 L 2 7 L 2 8 L 2 9 L 2 10 L 3 10 L 3 11 L 3 12 L 3 13 L 4 13 L 5 13 L 5 12 L 5 11 L 5 10 L 4 10 L 4 9 L 4 8 L 5 8 L 5 7 L 4 7 L 4 6 L 4 5 L 5 5 L 5 4 L 6 4 L 6 5 L 6 6 L 6 7 L 6 8 L 6 9 L 6 10 L 6 11 L 6 12 L 6 13 L 7 13 L 8 13 L 8 12 L 8 11 L 8 10 L 8 9 L 8 8 L 8 7 L 8 6 L 8 5 L 8 4 L 9 4 L 9 5 L 10 5 L 10 6 L 10 7 L 10 8 L 10 9 L 10 10 L 9 10 L 9 11 L 9 12 L 9 13 L 10 13 L 11 13 L 11 12 L 11 11 L 11 10 L 12 10 L 12 9 L 12 8 L 12 7 L 12 6 L 12 5 L 12 4 L 11 4 L 11 3 L 10 3 L 9 3 L 8 3 L 7 3 L 6 3 L 5 3 L 4 3 L 3 3 L 2 3 L 1 3 z M 1 6 L 1 5 L 1 4 L 0 4 L 0 5 L 0 6 L 1 6 z " />
</svg>
