<?xml version="1.0" encoding="UTF-8" standalone="no"?>
<svg
   version="1.1"
   width="16"
   height="16"
   shape-rendering="crispEdges"
   id="svg98"
   sodipodi:docname="numbersign.svg"
   xmlns:inkscape="http://www.inkscape.org/namespaces/inkscape"
   xmlns:sodipodi="http://sodipodi.sourceforge.net/DTD/sodipodi-0.dtd"
   xmlns="http://www.w3.org/2000/svg"
   xmlns:svg="http://www.w3.org/2000/svg">
  <defs
     id="defs102" />
  <sodipodi:namedview
     id="namedview100"
     pagecolor="#ffffff"
     bordercolor="#000000"
     borderopacity="0.25"
     inkscape:showpageshadow="2"
     inkscape:pageopacity="0.0"
     inkscape:pagecheckerboard="0"
     inkscape:deskcolor="#d1d1d1" />
  <path
     id="rect2"
     d="M 4 3 L 4 4 L 3 4 L 3 5 L 3 6 L 2 6 L 1 6 L 1 7 L 2 7 L 2 8 L 2 9 L 1 9 L 1 10 L 1 11 L 1 12 L 0 12 L 0 13 L 1 13 L 2 13 L 2 12 L 3 12 L 3 11 L 3 10 L 4 10 L 5 10 L 5 11 L 5 12 L 4 12 L 4 13 L 5 13 L 6 13 L 6 12 L 7 12 L 7 11 L 7 10 L 8 10 L 9 10 L 9 9 L 8 9 L 8 8 L 8 7 L 9 7 L 9 6 L 9 5 L 9 4 L 10 4 L 10 3 L 9 3 L 8 3 L 8 4 L 7 4 L 7 5 L 7 6 L 6 6 L 5 6 L 5 5 L 5 4 L 6 4 L 6 3 L 5 3 L 4 3 z M 4 7 L 5 7 L 6 7 L 6 8 L 6 9 L 5 9 L 4 9 L 4 8 L 4 7 z " />
</svg>
