<?xml version="1.0" encoding="UTF-8" standalone="no"?>
<svg
   version="1.1"
   width="17"
   height="16"
   shape-rendering="crispEdges"
   id="svg108"
   sodipodi:docname="OOgrave.svg"
   xmlns:inkscape="http://www.inkscape.org/namespaces/inkscape"
   xmlns:sodipodi="http://sodipodi.sourceforge.net/DTD/sodipodi-0.dtd"
   xmlns="http://www.w3.org/2000/svg"
   xmlns:svg="http://www.w3.org/2000/svg">
  <defs
     id="defs112" />
  <sodipodi:namedview
     id="namedview110"
     pagecolor="#ffffff"
     bordercolor="#000000"
     borderopacity="0.25"
     inkscape:showpageshadow="2"
     inkscape:pageopacity="0.0"
     inkscape:pagecheckerboard="0"
     inkscape:deskcolor="#d1d1d1" />
  <path
     id="rect2"
     d="M 2 0 L 2 1 L 3 1 L 3 2 L 4 2 L 5 2 L 5 1 L 4 1 L 4 0 L 3 0 L 2 0 z M 2 3 L 2 4 L 1 4 L 1 5 L 1 6 L 0 6 L 0 7 L 0 8 L 0 9 L 0 10 L 0 11 L 0 12 L 1 12 L 1 13 L 2 13 L 3 13 L 4 13 L 5 13 L 6 13 L 6 12 L 7 12 L 7 11 L 7 10 L 7 9 L 7 8 L 7 7 L 7 6 L 6 6 L 6 5 L 6 4 L 5 4 L 5 3 L 4 3 L 3 3 L 2 3 z M 3 4 L 4 4 L 4 5 L 5 5 L 5 6 L 5 7 L 5 8 L 5 9 L 5 10 L 4 10 L 4 11 L 3 11 L 3 10 L 2 10 L 2 9 L 2 8 L 2 7 L 2 6 L 2 5 L 3 5 L 3 4 z M 16 6 L 16 7 L 16 8 L 16 9 L 16 10 L 16 11 L 16 12 L 17 12 L 17 11 L 17 10 L 17 9 L 17 8 L 17 7 L 17 6 L 16 6 z " />
</svg>
