<?xml version="1.0" encoding="UTF-8" standalone="no"?>
<svg
   version="1.1"
   width="16"
   height="16"
   shape-rendering="crispEdges"
   id="svg110"
   sodipodi:docname="UUgrave.svg"
   xmlns:inkscape="http://www.inkscape.org/namespaces/inkscape"
   xmlns:sodipodi="http://sodipodi.sourceforge.net/DTD/sodipodi-0.dtd"
   xmlns="http://www.w3.org/2000/svg"
   xmlns:svg="http://www.w3.org/2000/svg">
  <defs
     id="defs114" />
  <sodipodi:namedview
     id="namedview112"
     pagecolor="#ffffff"
     bordercolor="#000000"
     borderopacity="0.25"
     inkscape:showpageshadow="2"
     inkscape:pageopacity="0.0"
     inkscape:pagecheckerboard="0"
     inkscape:deskcolor="#d1d1d1" />
  <path
     id="rect2"
     d="M 2 0 L 2 1 L 3 1 L 3 2 L 4 2 L 5 2 L 5 1 L 4 1 L 4 0 L 3 0 L 2 0 z M 0 3 L 0 4 L 0 5 L 0 6 L 1 6 L 1 5 L 1 4 L 2 4 L 2 5 L 2 6 L 1 6 L 1 7 L 2 7 L 2 8 L 1 8 L 1 9 L 1 10 L 1 11 L 1 12 L 2 12 L 2 13 L 3 13 L 4 13 L 4 12 L 5 12 L 5 13 L 6 13 L 7 13 L 8 13 L 8 12 L 7 12 L 7 11 L 7 10 L 7 9 L 7 8 L 7 7 L 7 6 L 7 5 L 7 4 L 7 3 L 6 3 L 5 3 L 5 4 L 5 5 L 5 6 L 5 7 L 5 8 L 5 9 L 4 9 L 4 10 L 4 11 L 3 11 L 3 10 L 3 9 L 3 8 L 4 8 L 4 7 L 4 6 L 4 5 L 4 4 L 4 3 L 3 3 L 2 3 L 1 3 L 0 3 z " />
</svg>
